<svg xmlns="http://www.w3.org/2000/svg" viewBox="0 0 1024 1024">
  <radialGradient id="abg" cx="512" cy="420" r="760" gradientUnits="userSpaceOnUse">
    <stop offset="0" stop-color="#3a2716"/>
    <stop offset="0.55" stop-color="#24150a"/>
    <stop offset="1" stop-color="#150b05"/>
  </radialGradient>
  <radialGradient id="aglow" cx="512" cy="490" r="430" gradientUnits="userSpaceOnUse">
    <stop offset="0" stop-color="#C9A227" stop-opacity="0.22"/>
    <stop offset="0.7" stop-color="#C9A227" stop-opacity="0.09"/>
    <stop offset="1" stop-color="#C9A227" stop-opacity="0"/>
  </radialGradient>
  <linearGradient id="fgold" x1="60" y1="4" x2="60" y2="82" gradientUnits="userSpaceOnUse">
    <stop offset="0" stop-color="#eecf62"/>
    <stop offset="0.45" stop-color="#c1961c"/>
    <stop offset="1" stop-color="#7d600e"/>
  </linearGradient>
  <linearGradient id="fwingdeep" x1="70" y1="3" x2="70" y2="32" gradientUnits="userSpaceOnUse">
    <stop offset="0" stop-color="#e3c458"/>
    <stop offset="0.6" stop-color="#b18b1d"/>
    <stop offset="1" stop-color="#7a5c10"/>
  </linearGradient>
  <linearGradient id="fwinglight" x1="58" y1="7" x2="58" y2="30" gradientUnits="userSpaceOnUse">
    <stop offset="0" stop-color="#f0d896"/>
    <stop offset="1" stop-color="#bd9220"/>
  </linearGradient>
  <rect x="0" y="0" width="1024" height="1024" rx="230" fill="url(#abg)"/>
  <rect x="0" y="0" width="1024" height="1024" rx="230" fill="url(#aglow)"/>
  <circle cx="512" cy="512" r="412" fill="none" stroke="#5d3a1e" stroke-width="16"/>
  <circle cx="512" cy="512" r="396" fill="none" stroke="#8a5a32" stroke-width="24"/>
  <rect x="498" y="66" width="28" height="92" rx="13" fill="#6f4525" transform="rotate(0 512 512)"/>
  <rect x="498" y="66" width="28" height="92" rx="13" fill="#6f4525" transform="rotate(36 512 512)"/>
  <rect x="498" y="66" width="28" height="92" rx="13" fill="#6f4525" transform="rotate(72 512 512)"/>
  <rect x="498" y="66" width="28" height="92" rx="13" fill="#6f4525" transform="rotate(108 512 512)"/>
  <rect x="498" y="66" width="28" height="92" rx="13" fill="#6f4525" transform="rotate(144 512 512)"/>
  <rect x="498" y="66" width="28" height="92" rx="13" fill="#6f4525" transform="rotate(180 512 512)"/>
  <rect x="498" y="66" width="28" height="92" rx="13" fill="#6f4525" transform="rotate(216 512 512)"/>
  <rect x="498" y="66" width="28" height="92" rx="13" fill="#6f4525" transform="rotate(252 512 512)"/>
  <rect x="498" y="66" width="28" height="92" rx="13" fill="#6f4525" transform="rotate(288 512 512)"/>
  <rect x="498" y="66" width="28" height="92" rx="13" fill="#6f4525" transform="rotate(324 512 512)"/>
  <rect x="16" y="16" width="992" height="992" rx="216" fill="none" stroke="#e9c96b" stroke-opacity="0.16" stroke-width="6"/>
  <g transform="translate(117,222) scale(6.7)">
    <path fill="#000000" fill-opacity="0.3" d="M14,84 C30,80 78,80 96,83 C100,84 100,87 96,88 C78,91 30,91 14,88 C10,87 10,85 14,84 Z"/>
  <g stroke="#4a3906" stroke-width="1.4" stroke-linejoin="round">
    <path fill="url(#fwingdeep)" d="M39,30 C43,20.5 50,11.5 59,7 C65.5,3.9 73,2.8 81,3 L98,5 C91.6,7.8 84.8,9.4 78,9.2 C82.4,11.2 86,13.8 89,17.2 C82,17.6 75.4,16.4 69.2,13.8 C72.2,17 74.4,20.8 75.8,25 C68.8,23.4 62.2,20.2 56.4,15.6 C57.2,19.8 57,24 56.2,28.2 C51.6,25.2 47,25.6 42.6,29.4 C41.4,30.1 40.2,30.3 39,30 Z"/>
    <path fill="url(#fwinglight)" d="M41,28.5 C45,20 51.5,12.5 59.5,8.5 C66,5.4 74,4.6 82,5.4 C74,7.4 66.8,9.4 60.6,12.6 C54.4,15.8 48.6,21 43.4,28.2 C42.6,28.4 41.8,28.5 41,28.5 Z"/>
  </g>
  <g fill="url(#fgold)" stroke="#4a3906" stroke-width="1.4" stroke-linejoin="round" transform="translate(0,15) scale(0.84)">
    <path d="M44,18 C50,20.5 56,21.8 62,21.5 C70,21 76,18.8 81,18.5 C88,19.5 93,24 93.5,30 C94,36 91,43 85,48 C77,52.5 66,55 56,53.8 C46,52 38.5,46.5 36.5,39 C35.5,30 38,21.5 44,18 Z"/>
    <path fill-rule="evenodd" d="M48,20 C40.5,15.5 33.5,11.5 28,9 C25.2,8.2 22.8,8.6 20.5,10 C15.4,12.8 10,15.8 6,18.2 C4.4,19.4 4.1,21.6 5.4,22.9 C8.4,24.6 12,25.4 15.5,25 C19.5,25 22.8,23.8 24.8,21 C26.8,22.6 28.6,24 30,25.8 C34.2,31 38.4,37.6 41.4,44.6 C42.4,47.4 43.2,50 43.6,52.4 L56,44 Z M15,13.2 a1.6,1.6 0 1,0 0.001,0 Z"/>
    <path d="M25,9.8 L27.6,3.4 L30.4,8.4 C28.6,8.8 26.8,9.3 25,9.8 Z"/>
    <path d="M28,9 C33,6.5 38.5,5.5 44,6 C41.5,8 39,9.5 36.5,10.5 C39.5,12 42,14 44,16.6 C39,15.6 34,13.4 29.5,10.2 C29,9.8 28.5,9.4 28,9 Z"/>
    <path d="M79,20 C85,15.8 92,12 98.5,9.4 C103.5,7.4 109,5.6 114.5,4.5 C110.8,7.6 107,10 103.2,11.8 C105.6,12.1 108,12.6 110.2,13.5 C104.6,15.6 99.2,17 94.2,18.2 C90.4,19.2 87.6,21.4 85.8,25 C83.8,28 80.4,28.2 78.2,25.8 C76.6,23.8 77,21.6 79,20 Z"/>
    <path d="M44,38 C37,42 30.5,47 25.5,51.5 C20.5,55.5 15,58.8 9.8,61 L6,62.6 L4.6,64 L6.6,68 L10.8,65.8 L13.6,63.6 C18.8,61.2 24,58.2 28.8,54.6 C34.4,50.4 40.4,46.4 46.4,43.4 Z"/>
    <path d="M46,42 C42.5,48 39.2,54 36.2,59.8 L35,62 C33,66.5 31.2,71 29.8,75.2 L29.2,77.2 L26.4,79.8 L29.2,84 L33.2,80.8 L34.2,76.6 C36,72 38.2,67.4 40.8,63.2 C44,57.6 47.8,52.4 52,47.8 Z"/>
    <path d="M74,40 C77,46 80.8,51.6 85,55.8 C90,60 95.4,63.2 101,65.6 L105,67.2 L109.5,68.8 L108,73 L102.6,71 L98,69 C91.8,66.2 86,62.4 81,57.6 C76.2,52.8 72.2,47 69,40.8 Z"/>
    <path d="M88,29 C93,33 98.5,35.8 104,37.4 L108.5,38.6 L113,39.4 L112.4,43.6 L107,42.8 L102,41.8 C95.8,40.2 89.8,37.4 84.6,33.6 C83.4,31.4 84.4,29.4 88,29 Z"/>
  </g>
  </g>
</svg>
