<svg xmlns="http://www.w3.org/2000/svg" viewBox="0 0 36 36">
  <g fill="#000000" stroke="#000000" stroke-width="1.2" stroke-linejoin="round" transform="translate(1,1.8) scale(0.29)">
    <path d="M40,29 C44,19.5 51,11 60,6.5 C67,3.1 75,2 83,2.6 L97,4.4 C90.4,7.4 83.4,9 76.4,9 C80.4,11.4 83.8,14.4 86.6,18 C79.6,18.2 72.8,16.8 66.4,13.8 C68.6,17.8 69.8,22.2 70,27 C64,24.4 57.6,24.6 51.4,27.6 C47.4,29.2 43.6,29.7 40,29 Z"/>
    <g transform="translate(0,15) scale(0.84)">
      <path d="M44,18 C50,20.5 56,21.8 62,21.5 C70,21 76,18.8 81,18.5 C88,19.5 93,24 93.5,30 C94,36 91,43 85,48 C77,52.5 66,55 56,53.8 C46,52 38.5,46.5 36.5,39 C35.5,30 38,21.5 44,18 Z"/>
      <path d="M48,20 C40.5,15.5 33.5,11.5 28,9 C25.2,8.2 22.8,8.6 20.5,10 C15.4,12.8 10,15.8 6,18.2 C4.4,19.4 4.1,21.6 5.4,22.9 C8.4,24.6 12,25.4 15.5,25 C19.5,25 22.8,23.8 24.8,21 C26.8,22.6 28.6,24 30,25.8 C34.2,31 38.4,37.6 41.4,44.6 C42.4,47.4 43.2,50 43.6,52.4 L56,44 Z"/>
      <path d="M25,9.8 L27.6,3.4 L30.4,8.4 C28.6,8.8 26.8,9.3 25,9.8 Z"/>
      <path d="M79,20 C85,15.8 92,12 98.5,9.4 C103.5,7.4 109,5.6 114.5,4.5 C110.8,7.6 107,10 103.2,11.8 C105.6,12.1 108,12.6 110.2,13.5 C104.6,15.6 99.2,17 94.2,18.2 C90.4,19.2 87.6,21.4 85.8,25 C83.8,28 80.4,28.2 78.2,25.8 C76.6,23.8 77,21.6 79,20 Z"/>
      <path d="M44,38 C37,42 30.5,47 25.5,51.5 C20.5,55.5 15,58.8 9.8,61 L6,62.6 L4.6,64 L6.6,68 L10.8,65.8 L13.6,63.6 C18.8,61.2 24,58.2 28.8,54.6 C34.4,50.4 40.4,46.4 46.4,43.4 Z"/>
      <path d="M46,42 C42.5,48 39.2,54 36.2,59.8 L35,62 C33,66.5 31.2,71 29.8,75.2 L29.2,77.2 L26.4,79.8 L29.2,84 L33.2,80.8 L34.2,76.6 C36,72 38.2,67.4 40.8,63.2 C44,57.6 47.8,52.4 52,47.8 Z"/>
      <path d="M74,40 C77,46 80.8,51.6 85,55.8 C90,60 95.4,63.2 101,65.6 L105,67.2 L109.5,68.8 L108,73 L102.6,71 L98,69 C91.8,66.2 86,62.4 81,57.6 C76.2,52.8 72.2,47 69,40.8 Z"/>
      <path d="M88,29 C93,33 98.5,35.8 104,37.4 L108.5,38.6 L113,39.4 L112.4,43.6 L107,42.8 L102,41.8 C95.8,40.2 89.8,37.4 84.6,33.6 C83.4,31.4 84.4,29.4 88,29 Z"/>
    </g>
  </g>
</svg>
