<svg xmlns="http://www.w3.org/2000/svg" viewBox="0 0 120 90">
  <g fill="none" stroke="#E8842C" stroke-linecap="round" stroke-linejoin="round">
    <path stroke-width="3.4" d="M40,31 C46,26 56,24.5 66,27 C77,29.5 84.5,35 86,43 C87.5,51 80,57.5 70,59.5 C59,61.5 46,59 40.5,52 C35.5,45.5 36,36.5 40,31"/>
    <path stroke-width="3" d="M30,14.5 C36,13 41.5,17 42.5,23 C43.5,29.5 39,35 32.5,36 C26,37 20,33 19,27 C18.1,21.2 23.5,16 30,14.5"/>
    <path stroke-width="2.9" d="M20.5,25 C17,22.5 12,22.8 9.5,25.5 C7.2,28 8.5,31 12.5,31.8 C16.5,32.6 20.5,30.5 21,27.5"/>
    <path stroke-width="2.6" d="M23.5,15.5 L21.5,7.5 L28.5,11.5"/>
    <path stroke-width="2.6" d="M33.5,13.5 L36,6 L41,12"/>
    <path stroke-width="3.2" d="M44,54 C39,59 33,64.5 26,68.5 L18,72.5"/>
    <path stroke-width="3.2" d="M52,59 C49,65 46.5,71.5 45,78.5"/>
    <path stroke-width="3.2" d="M74,57 C80,62 87,66 95,69.5 L102,72"/>
    <path stroke-width="3.2" d="M85,47 C92,49.5 99,50.5 106.5,50 L112,49"/>
    <path stroke-width="2.2" opacity="0.5" d="M48,38 C54,33 60,32 58,38 C56,44 62,45 68,40 C74,35 76,40 71,46 C66,52 73,52 78,47"/>
  </g>
  <g fill="none" stroke="#9C6B3F" stroke-linecap="round" stroke-linejoin="round">
    <path stroke-width="2.8" d="M40,15 C45,12.5 48.5,15.5 46,19 C43.5,22.5 49,24 52.5,21.5 C50.5,25.5 54.5,27.5 58.5,25.5"/>
    <path stroke-width="2.8" d="M86,40 C91,35 97,31.5 96,37 C95,42.5 102,37 106,32 C105,38 110,35.5 114,31"/>
  </g>
  <circle cx="27" cy="23" r="2.5" fill="#9C6B3F"/>
</svg>
