<svg xmlns="http://www.w3.org/2000/svg" viewBox="0 0 36 36">
  <path fill="#000000" fill-rule="evenodd" d="M10.16,31.55 L11.80,28.45 A13.2,13.2 0 1 1 24.20,28.45 L25.84,31.55 L22.41,25.10 L21.76,23.86 A8.0,8.0 0 1 0 14.24,23.86 L13.59,25.10 Z M10.77,25.55 a1.0,1.0 0 1,0 0.001,0 Z M7.40,18.05 a1.0,1.0 0 1,0 0.001,0 Z M10.42,10.39 a1.0,1.0 0 1,0 0.001,0 Z M18.00,7.20 a1.0,1.0 0 1,0 0.001,0 Z M25.58,10.39 a1.0,1.0 0 1,0 0.001,0 Z M28.60,18.05 a1.0,1.0 0 1,0 0.001,0 Z M25.23,25.55 a1.0,1.0 0 1,0 0.001,0 Z"/>
</svg>
